<?xml version="1.0" encoding="UTF-8" standalone="no"?>
<!-- Created with Inkscape (http://www.inkscape.org/) -->

<svg
   width="1024"
   height="1024"
   viewBox="0 0 270.93333 270.93333"
   version="1.1"
   id="svg5"
   xml:space="preserve"
   inkscape:version="1.2.1 (9c6d41e410, 2022-07-14)"
   sodipodi:docname="icon-admin.svg"
   inkscape:export-filename="icon-admin-512.png"
   inkscape:export-xdpi="12.000001"
   inkscape:export-ydpi="12.000001"
   xmlns:inkscape="http://www.inkscape.org/namespaces/inkscape"
   xmlns:sodipodi="http://sodipodi.sourceforge.net/DTD/sodipodi-0.dtd"
   xmlns:xlink="http://www.w3.org/1999/xlink"
   xmlns="http://www.w3.org/2000/svg"
   xmlns:svg="http://www.w3.org/2000/svg"><sodipodi:namedview
     id="namedview7"
     pagecolor="#ffffff"
     bordercolor="#000000"
     borderopacity="0.25"
     inkscape:showpageshadow="2"
     inkscape:pageopacity="0.0"
     inkscape:pagecheckerboard="0"
     inkscape:deskcolor="#d1d1d1"
     inkscape:document-units="mm"
     showgrid="false"
     inkscape:zoom="0.5946522"
     inkscape:cx="761.78983"
     inkscape:cy="461.61437"
     inkscape:current-layer="layer1"><inkscape:grid
       type="xygrid"
       id="grid111" /></sodipodi:namedview><defs
     id="defs2"><linearGradient
       inkscape:collect="always"
       id="linearGradient717"><stop
         style="stop-color:#dc0000;stop-opacity:1;"
         offset="0"
         id="stop713" /><stop
         style="stop-color:#b50000;stop-opacity:1"
         offset="1"
         id="stop715" /></linearGradient><linearGradient
       inkscape:collect="always"
       xlink:href="#linearGradient717"
       id="linearGradient719"
       x1="228.25317"
       y1="14.682952"
       x2="140.6004"
       y2="261.17859"
       gradientUnits="userSpaceOnUse" /></defs><g
     inkscape:label="Layer 1"
     inkscape:groupmode="layer"
     id="layer1"><rect
       style="fill:url(#linearGradient719);fill-opacity:1;stroke-width:0.264583"
       id="rect115"
       width="270.93332"
       height="270.93332"
       x="0"
       y="0"
       rx="33.866665" /><path
       id="path18329"
       style="opacity:1;fill:#ffffff;fill-opacity:1;stroke-width:0.264583"
       d="M 81.445158 44.391606 C 71.497762 44.34326 59.998982 45.079969 48.053398 47.437415 C 15.973572 53.768324 -5.0132687e-15 69.410234 0 69.410234 L 0 270.93333 L 126.36231 270.93333 C 126.36231 270.93333 127.25234 270.93314 122.02201 253.61449 C 116.79165 236.29585 123.37369 206.01207 150.06991 203.11525 C 152.12765 202.89196 153.29599 201.80052 153.81697 200.1361 C 163.3758 199.05018 175.31632 198.19731 189.82666 198.01634 C 221.49006 197.62143 257.75843 201.03217 257.75843 201.03217 C 257.75843 201.03217 245.16914 168.19766 229.14105 143.28169 C 212.31497 117.12523 195.16587 101.64392 195.16587 101.64392 C 179.27533 82.720553 145.61897 53.85519 113.77238 47.437415 C 113.77238 47.437415 100.43564 44.483902 81.445158 44.391606 z M 94.104333 114.79403 A 17.130112 17.130112 0 0 1 111.23455 131.92425 A 17.130112 17.130112 0 0 1 94.104333 149.05447 A 17.130112 17.130112 0 0 1 76.974113 131.92425 A 17.130112 17.130112 0 0 1 94.104333 114.79403 z " /></g></svg>
